<svg width="99" height="42" viewBox="0 0 99 42" fill="none" xmlns="http://www.w3.org/2000/svg">
<path d="M26.68 14.88L23.384 26H21.32L18.984 17.584L16.504 26L14.456 26.016L11.304 14.88H13.24L15.544 23.936L18.04 14.88H20.088L22.408 23.888L24.728 14.88H26.68ZM36.2644 21.376C36.2644 21.7067 36.243 22.0053 36.2004 22.272H29.4644C29.5177 22.976 29.779 23.5413 30.2484 23.968C30.7177 24.3947 31.2937 24.608 31.9764 24.608C32.9577 24.608 33.651 24.1973 34.0564 23.376H36.0244C35.7577 24.1867 35.2724 24.8533 34.5684 25.376C33.875 25.888 33.011 26.144 31.9764 26.144C31.1337 26.144 30.3764 25.9573 29.7044 25.584C29.043 25.2 28.5204 24.6667 28.1364 23.984C27.763 23.2907 27.5764 22.4907 27.5764 21.584C27.5764 20.6773 27.7577 19.8827 28.1204 19.2C28.4937 18.5067 29.011 17.9733 29.6724 17.6C30.3444 17.2267 31.1124 17.04 31.9764 17.04C32.8084 17.04 33.5497 17.2213 34.2004 17.584C34.851 17.9467 35.3577 18.4587 35.7204 19.12C36.083 19.7707 36.2644 20.5227 36.2644 21.376ZM34.3604 20.8C34.3497 20.128 34.1097 19.5893 33.6404 19.184C33.171 18.7787 32.5897 18.576 31.8964 18.576C31.267 18.576 30.7284 18.7787 30.2804 19.184C29.8324 19.5787 29.5657 20.1173 29.4804 20.8H34.3604ZM39.8834 14.16V26H38.0594V14.16H39.8834ZM41.6701 21.584C41.6701 20.6773 41.8515 19.8827 42.2141 19.2C42.5875 18.5067 43.0995 17.9733 43.7501 17.6C44.4008 17.2267 45.1475 17.04 45.9901 17.04C47.0568 17.04 47.9368 17.296 48.6301 17.808C49.3341 18.3093 49.8088 19.0293 50.0541 19.968H48.0861C47.9261 19.5307 47.6701 19.1893 47.3181 18.944C46.9661 18.6987 46.5235 18.576 45.9901 18.576C45.2435 18.576 44.6461 18.8427 44.1981 19.376C43.7608 19.8987 43.5421 20.6347 43.5421 21.584C43.5421 22.5333 43.7608 23.2747 44.1981 23.808C44.6461 24.3413 45.2435 24.608 45.9901 24.608C47.0461 24.608 47.7448 24.144 48.0861 23.216H50.0541C49.7981 24.112 49.3181 24.8267 48.6141 25.36C47.9101 25.8827 47.0355 26.144 45.9901 26.144C45.1475 26.144 44.4008 25.9573 43.7501 25.584C43.0995 25.2 42.5875 24.6667 42.2141 23.984C41.8515 23.2907 41.6701 22.4907 41.6701 21.584ZM55.6959 26.144C54.8639 26.144 54.1119 25.9573 53.4399 25.584C52.7679 25.2 52.2399 24.6667 51.8559 23.984C51.4719 23.2907 51.2799 22.4907 51.2799 21.584C51.2799 20.688 51.4772 19.8933 51.8719 19.2C52.2665 18.5067 52.8052 17.9733 53.4879 17.6C54.1705 17.2267 54.9332 17.04 55.7759 17.04C56.6185 17.04 57.3812 17.2267 58.0639 17.6C58.7465 17.9733 59.2852 18.5067 59.6799 19.2C60.0745 19.8933 60.2719 20.688 60.2719 21.584C60.2719 22.48 60.0692 23.2747 59.6639 23.968C59.2585 24.6613 58.7039 25.2 57.9999 25.584C57.3065 25.9573 56.5385 26.144 55.6959 26.144ZM55.6959 24.56C56.1652 24.56 56.6025 24.448 57.0079 24.224C57.4239 24 57.7599 23.664 58.0159 23.216C58.2719 22.768 58.3999 22.224 58.3999 21.584C58.3999 20.944 58.2772 20.4053 58.0319 19.968C57.7865 19.52 57.4612 19.184 57.0559 18.96C56.6505 18.736 56.2132 18.624 55.7439 18.624C55.2745 18.624 54.8372 18.736 54.4319 18.96C54.0372 19.184 53.7225 19.52 53.4879 19.968C53.2532 20.4053 53.1359 20.944 53.1359 21.584C53.1359 22.5333 53.3759 23.2693 53.8559 23.792C54.3465 24.304 54.9599 24.56 55.6959 24.56ZM72.747 17.04C73.4403 17.04 74.059 17.184 74.603 17.472C75.1577 17.76 75.5897 18.1867 75.899 18.752C76.219 19.3173 76.379 20 76.379 20.8V26H74.571V21.072C74.571 20.2827 74.3737 19.68 73.979 19.264C73.5843 18.8373 73.0457 18.624 72.363 18.624C71.6803 18.624 71.1363 18.8373 70.731 19.264C70.3363 19.68 70.139 20.2827 70.139 21.072V26H68.331V21.072C68.331 20.2827 68.1337 19.68 67.739 19.264C67.3443 18.8373 66.8057 18.624 66.123 18.624C65.4403 18.624 64.8963 18.8373 64.491 19.264C64.0963 19.68 63.899 20.2827 63.899 21.072V26H62.075V17.184H63.899V18.192C64.1977 17.8293 64.5763 17.5467 65.035 17.344C65.4937 17.1413 65.9843 17.04 66.507 17.04C67.211 17.04 67.8403 17.1893 68.395 17.488C68.9497 17.7867 69.3763 18.2187 69.675 18.784C69.9417 18.2507 70.3577 17.8293 70.923 17.52C71.4883 17.2 72.0963 17.04 72.747 17.04ZM86.78 21.376C86.78 21.7067 86.7587 22.0053 86.716 22.272H79.98C80.0333 22.976 80.2947 23.5413 80.764 23.968C81.2333 24.3947 81.8093 24.608 82.492 24.608C83.4733 24.608 84.1667 24.1973 84.572 23.376H86.54C86.2733 24.1867 85.788 24.8533 85.084 25.376C84.3907 25.888 83.5267 26.144 82.492 26.144C81.6493 26.144 80.892 25.9573 80.22 25.584C79.5587 25.2 79.036 24.6667 78.652 23.984C78.2787 23.2907 78.092 22.4907 78.092 21.584C78.092 20.6773 78.2733 19.8827 78.636 19.2C79.0093 18.5067 79.5267 17.9733 80.188 17.6C80.86 17.2267 81.628 17.04 82.492 17.04C83.324 17.04 84.0653 17.2213 84.716 17.584C85.3667 17.9467 85.8733 18.4587 86.236 19.12C86.5987 19.7707 86.78 20.5227 86.78 21.376ZM84.876 20.8C84.8653 20.128 84.6253 19.5893 84.156 19.184C83.6867 18.7787 83.1053 18.576 82.412 18.576C81.7827 18.576 81.244 18.7787 80.796 19.184C80.348 19.5787 80.0813 20.1173 79.996 20.8H84.876Z" fill="#0DB760"/>
<path d="M98.75 21C98.75 23.814 97.4068 26.5164 94.933 28.9976C92.4582 31.4799 88.8647 33.7268 84.4042 35.6191C75.4841 39.4034 63.1438 41.75 49.5 41.75C35.8562 41.75 23.5159 39.4034 14.5959 35.6191C10.1354 33.7268 6.54176 31.4799 4.067 28.9976C1.59324 26.5164 0.25 23.814 0.25 21C0.25 18.186 1.59324 15.4836 4.067 13.0024C6.54176 10.5201 10.1354 8.27324 14.5959 6.3809C23.5159 2.59664 35.8562 0.25 49.5 0.25C63.1438 0.25 75.4841 2.59664 84.4042 6.3809C88.8647 8.27324 92.4582 10.5201 94.933 13.0024C97.4068 15.4836 98.75 18.186 98.75 21Z" stroke="#0DB760" stroke-width="0.5"/>
</svg>
